<?xml version="1.0" encoding="UTF-8" standalone="no"?>
<svg width="122px" height="28px" viewBox="0 0 122 28" version="1.1" xmlns="http://www.w3.org/2000/svg" xmlns:xlink="http://www.w3.org/1999/xlink">
    <!-- Generator: sketchtool 41.2 (35397) - http://www.bohemiancoding.com/sketch -->
    <title>F0CC3DA0-DFBF-4983-A091-4578DCE9F89E</title>
    <desc>Created with sketchtool.</desc>
    <defs></defs>
    <g id="404" stroke="none" stroke-width="1" fill="none" fill-rule="evenodd">
        <g transform="translate(-876.000000, -248.000000)" id="Group-2" fill="#494949">
            <g transform="translate(647.000000, 248.000000)">
                <g id="Mint" transform="translate(229.000000, 0.000000)">
                    <g id="logo_dark">
                        <path d="M77.0848485,7.46080402 C79.0136364,7.46080402 80.4856061,8.06984925 81.5515152,9.23718593 C82.6174242,10.4552764 83.125,12.1301508 83.125,14.3633166 L83.125,24.0065327 L78.6075758,24.0065327 L78.6075758,14.8708543 C78.6075758,12.5869347 77.6939394,11.4703518 75.8666667,11.4703518 C73.8363636,11.4703518 72.8212121,12.8914573 72.8212121,15.6829146 L72.8212121,24.0572864 L68.3037879,24.0572864 L68.3037879,14.921608 C68.3037879,12.6376884 67.3901515,11.5211055 65.5628788,11.5211055 C63.5325758,11.5211055 62.5174242,12.7899497 62.5174242,15.378392 L62.5174242,24.0572864 L58,24.0572864 L58,7.8160804 L61.7560606,7.8160804 L61.9083333,9.99849246 L61.9590909,9.99849246 C62.9234848,8.32361809 64.4969697,7.46080402 66.730303,7.46080402 C68.9636364,7.46080402 70.6386364,8.32361809 71.6537879,10.1 L71.7045455,10.1 C72.7704545,8.32361809 74.5469697,7.46080402 77.0848485,7.46080402 Z M85.7136364,0.761306533 C86.2212121,0.253768844 86.9318182,0 87.6931818,0 C88.4545455,0 89.1651515,0.253768844 89.6727273,0.761306533 C90.180303,1.26884422 90.4848485,1.92864322 90.4848485,2.74070352 C90.4848485,3.55276382 90.2310606,4.26331658 89.6727273,4.77085427 C89.1651515,5.27839196 88.4545455,5.5321608 87.6931818,5.5321608 C86.9318182,5.5321608 86.2212121,5.27839196 85.7136364,4.77085427 C85.2060606,4.26331658 84.9015152,3.60351759 84.9015152,2.74070352 C84.9522727,1.92864322 85.2060606,1.26884422 85.7136364,0.761306533 Z M85.4598485,7.76532663 L89.9772727,7.76532663 L89.9772727,24.0065327 L85.4598485,24.0065327 L85.4598485,7.76532663 Z M101.702273,7.46080402 C103.681818,7.46080402 105.204545,8.06984925 106.321212,9.2879397 C107.437879,10.5060302 107.996212,12.2316583 107.996212,14.4140704 L107.996212,24.0572864 L103.478788,24.0572864 L103.478788,14.9723618 C103.478788,13.8557789 103.225,12.9929648 102.666667,12.3839196 C102.159091,11.7748744 101.397727,11.4703518 100.433333,11.4703518 C99.3674242,11.4703518 98.555303,11.8256281 97.9462121,12.4854271 C97.3371212,13.1452261 97.0833333,14.1603015 97.0833333,15.378392 L97.0833333,24.0065327 L92.5659091,24.0065327 L92.5659091,7.76532663 L96.3219697,7.76532663 L96.4742424,10.1 L96.525,10.1 C97.6416667,8.32361809 99.3166667,7.46080402 101.702273,7.46080402 Z M121.396212,19.4386935 L121.396212,23.8035176 C120.634848,24.158794 119.568939,24.361809 118.198485,24.361809 C116.218939,24.361809 114.696212,23.8542714 113.681061,22.7884422 C112.665909,21.7226131 112.158333,20.2 112.158333,18.1190955 L112.158333,11.6226131 L109.468182,11.6226131 L109.468182,7.8160804 L112.310606,7.8160804 L112.919697,3.24824121 L116.726515,3.24824121 L116.726515,7.8160804 L121.396212,7.8160804 L121.396212,11.6226131 L116.726515,11.6226131 L116.726515,17.9160804 C116.726515,18.6773869 116.929545,19.2864322 117.335606,19.6924623 C117.741667,20.0984925 118.3,20.3015075 119.010606,20.3015075 C119.924242,20.3015075 120.685606,19.9969849 121.294697,19.3879397 L121.396212,19.3879397 L121.396212,19.4386935 Z" id="Combined-Shape"></path>
                        <path d="M29.7126507,10.2770202 L29.7439394,7.39867478 L27.8151515,7.39867478 L27.7643939,13.9966647 L34.2613636,14.0474185 L34.2613637,12.0680214 L32.2387512,12.0680215 L34.5151515,10.0378708 C35.9363636,8.76902654 37.9159091,8.05847378 39.8954545,8.10922755 C41.9257576,8.15998131 43.7530303,8.92128785 45.0727273,10.2408858 C46.6969697,11.9157602 47.6106061,14.0474185 47.6106061,16.2298306 C47.6106061,18.4122426 46.6969697,20.5439009 45.0727273,22.2187753 C43.7530303,23.5383733 41.9257576,24.2996798 39.8954545,24.3504336 C37.8651515,24.4011873 35.9363636,23.6906346 34.5151515,22.4217904 L18.1204545,7.7031974 C13.9075758,3.89666473 7.10606061,4.15043358 3.24848485,8.21073508 C1.16742424,10.3931471 3.55271368e-15,13.2353582 3.55271368e-15,16.1790768 C3.55271368e-15,19.0720416 1.16742424,21.9142527 3.24848485,24.1474185 C5.2280303,26.2790768 8.07045455,27.3449059 10.9128788,27.3449059 C13.4507576,27.3449059 16.0901515,26.4313381 18.1204545,24.6549562 L20.7578367,22.3028728 L20.8106061,24.7564637 L22.7393939,24.70571 L22.5871212,18.10772 L16.0901515,18.2092275 L16.1409091,20.1378708 L18.7152436,20.0806676 L16.0901515,22.4217904 C14.6689394,23.7413884 12.6893939,24.4011873 10.6590909,24.3504336 C8.62878788,24.2996798 6.7,23.4876195 5.43106061,22.1172677 C3.85757576,20.4931471 2.99469697,18.3614889 2.99469697,16.2298306 C2.99469697,14.0981723 3.85757576,11.966514 5.43106061,10.3423934 C6.75075758,8.97204162 8.62878788,8.15998131 10.6590909,8.10922755 C12.6893939,8.05847378 14.6689394,8.76902654 16.0901515,10.0378708 L32.4848485,24.7564637 C34.5151515,26.5328456 37.1037879,27.4464135 39.6924242,27.4464135 C42.4333333,27.4464135 45.225,26.4313381 47.2045455,24.4011873 C49.3871212,22.1680215 50.605303,19.2750567 50.605303,16.2805843 C50.605303,13.286112 49.3871212,10.3931471 47.2045455,8.15998131 C43.3977273,4.25194111 36.6469697,4.09967981 32.4848485,7.80470493 L29.7126507,10.2770202 Z M35.2765152,12.5755592 L43.3469697,12.5755592 L43.3469697,14.0474185 L35.2765152,14.0474185 L35.2765152,12.5755592 Z M35.2765152,18.2599813 L43.3469697,18.2599813 L43.3469697,19.7318406 L35.2765152,19.7318406 L35.2765152,18.2599813 Z M35.2765152,15.4177703 L43.3469697,15.4177703 L43.3469697,16.8896296 L35.2765152,16.8896296 L35.2765152,15.4177703 Z M6.64924242,12.5755592 L14.719697,12.5755592 L14.719697,14.0474185 L6.64924242,14.0474185 L6.64924242,12.5755592 Z M6.64924242,18.2599813 L14.719697,18.2599813 L14.719697,19.7318406 L6.64924242,19.7318406 L6.64924242,18.2599813 Z M6.64924242,15.4177703 L14.719697,15.4177703 L14.719697,16.8896296 L6.64924242,16.8896296 L6.64924242,15.4177703 Z" id="Combined-Shape"></path>
                    </g>
                </g>
            </g>
        </g>
    </g>
</svg>