<?xml version="1.0" encoding="UTF-8" standalone="no"?>
<svg width="1153px" height="494px" viewBox="0 0 1153 494" version="1.1" xmlns="http://www.w3.org/2000/svg" xmlns:xlink="http://www.w3.org/1999/xlink">
    <!-- Generator: sketchtool 41.2 (35397) - http://www.bohemiancoding.com/sketch -->
    <title>3C6C4AB8-5469-482F-9AB1-E1913D1CC2CE</title>
    <desc>Created with sketchtool.</desc>
    <defs></defs>
    <g id="404" stroke="none" stroke-width="1" fill="none" fill-rule="evenodd" fill-opacity="0.82">
        <g transform="translate(-71.000000, -104.000000)" fill="#F0F0F0">
            <path d="M272.6,511.52 L71,511.52 L71,435.92 L188.36,114.8 L297.8,114.8 L170.36,425.12 L272.6,425.12 L272.6,291.92 L371.96,291.92 L371.96,425.12 L417.32,425.12 L417.32,511.52 L371.96,511.52 L371.96,590 L272.6,590 L272.6,511.52 Z M508.04,538.52 C477.799849,499.399804 462.68,436.88043 462.68,350.96 C462.68,265.03957 477.799849,202.520196 508.04,163.4 C538.280151,124.279804 584.599688,104.72 647,104.72 C709.400312,104.72 755.719849,124.279804 785.96,163.4 C816.200151,202.520196 831.32,265.03957 831.32,350.96 C831.32,436.88043 816.200151,499.399804 785.96,538.52 C755.719849,577.640196 709.400312,597.2 647,597.2 C584.599688,597.2 538.280151,577.640196 508.04,538.52 Z M694.52,495.32 C706.52006,484.999948 715.279972,468.200116 720.8,444.92 C726.320028,421.639884 729.08,390.320197 729.08,350.96 C729.08,311.599803 726.320028,280.280116 720.8,257 C715.279972,233.719884 706.52006,216.920052 694.52,206.6 C682.51994,196.279948 666.680098,191.12 647,191.12 C627.319902,191.12 611.48006,196.279948 599.48,206.6 C587.47994,216.920052 578.720028,233.719884 573.2,257 C567.679972,280.280116 564.92,311.599803 564.92,350.96 C564.92,390.320197 567.679972,421.639884 573.2,444.92 C578.720028,468.200116 587.47994,484.999948 599.48,495.32 C611.48006,505.640052 627.319902,510.8 647,510.8 C666.680098,510.8 682.51994,505.640052 694.52,495.32 Z M1079,511.52 L877.4,511.52 L877.4,435.92 L994.76,114.8 L1104.2,114.8 L976.76,425.12 L1079,425.12 L1079,291.92 L1178.36,291.92 L1178.36,425.12 L1223.72,425.12 L1223.72,511.52 L1178.36,511.52 L1178.36,590 L1079,590 L1079,511.52 Z"></path>
        </g>
    </g>
</svg>