<svg width="82" height="82" viewBox="0 0 82 82" xmlns="http://www.w3.org/2000/svg" xmlns:xlink="http://www.w3.org/1999/xlink"><title>3BA8D682-E885-4596-B715-FC144ED85722</title><defs><circle id="a" cx="41" cy="41" r="41"/></defs><g fill="none" fill-rule="evenodd"><mask id="b" fill="#fff"><use xlink:href="#a"/></mask><use fill="#FFF" xlink:href="#a"/><g mask="url(#b)"><path d="M21.756 83.427l-.008-24.173c0-1.105.403-2.799.9-3.781l17.957-35.537c.498-.984 1.323-1.002 1.848-.031l18.31 33.821c.523.967.95 2.645.953 3.76l.078 27.899" stroke="#FCB41A" stroke-width="2" fill="#FFF"/><path fill="#FCB41A" d="M35.157 30.217l12.977.05-6.453-10.56"/><path d="M21.725 56.942l8.971 12.75c.636.903 1.653.903 2.28-.014l7.584-11.086c.624-.912 1.667-.937 2.33-.056l8.43 11.197c.663.881 1.635.814 2.17-.147l8.164-14.683M32.104 70v10.57m20.5-9.57v10.57" stroke="#FCB41A" stroke-width="2"/></g></g></svg>