<svg width="48" height="68" viewBox="0 0 48 68" xmlns="http://www.w3.org/2000/svg"><title>6A4AFCA2-05D5-416D-8A91-143E3BD4F4D5</title><path d="M36 20h-8v4h8v4h-8v4h8c-.93 4.558-5.172 8-10 8h-4c-4.828 0-8.868-3.442-9.798-8H20v-4h-8v-4h8v-4h-8v-4h8v-4h-7.798c.93-4.558 4.97-8 9.798-8h4c4.828 0 8.868 3.442 9.798 8H28v4h8v4zM26 0h-4C14.28 0 8 6.28 8 14v16c0 7.72 6.28 14 14 14h4c7.72 0 14-6.28 14-14V14c0-7.72-6.28-14-14-14zm18 34v2c0 6.618-5.382 12-12 12H16C9.382 48 4 42.618 4 36v-2H0v2c0 8.822 7.178 16 16 16h6v12H12v4h24v-4H26V52h6c8.822 0 16-7.178 16-16v-2h-4z" fill="#51566C" fill-rule="evenodd"/></svg>