<svg width="82" height="82" viewBox="0 0 82 82" xmlns="http://www.w3.org/2000/svg" xmlns:xlink="http://www.w3.org/1999/xlink"><title>79D2261D-430B-48CA-B5A3-1CBA65E8DBE7</title><defs><path d="M9.844 39H37a1.996 1.996 0 0 0 2-2.001V2a1.996 1.996 0 0 0-2.001-2H2a1.996 1.996 0 0 0-2 2.001V37c0 1.112.896 2 2.001 2h1.88l-.246 4.1 6.21-4.1z" id="a"/><mask id="b" x="0" y="0" width="39" height="43.099" fill="#fff"><use xlink:href="#a"/></mask></defs><g fill="none" fill-rule="evenodd"><circle fill="#FFF" cx="41" cy="41" r="41"/><g transform="translate(22 21)"><use stroke="#FCB41A" mask="url(#b)" stroke-width="4" fill="#FFF" xlink:href="#a"/><path d="M17 8h6a1 1 0 1 0 0-2h-6a1 1 0 1 0 0 2zm15 13h-7a1 1 0 1 0 0 2h7a1 1 0 1 0 0-2zM7 15h5a1 1 0 1 0 0-2H7a1 1 0 1 0 0 2zm12-1a1 1 0 0 0 1 1h8a1 1 0 1 0 0-2h-8a1 1 0 0 0-1 1zm-3 1c.26 0 .52-.11.71-.29.18-.19.29-.45.29-.71 0-.26-.11-.521-.29-.71-.37-.37-1.05-.37-1.42 0-.181.189-.29.45-.29.71 0 .26.109.52.29.71.189.18.45.29.71.29zm6 7a1 1 0 0 0-1-1H11a1 1 0 1 0 0 2h10a1 1 0 0 0 1-1zM7 23c.26 0 .52-.11.71-.29.18-.19.29-.45.29-.71 0-.26-.11-.521-.29-.71-.38-.37-1.05-.37-1.42 0-.181.189-.29.439-.29.71 0 .26.109.52.29.71.189.18.45.29.71.29zm25-8c.26 0 .52-.11.71-.29.18-.19.29-.45.29-.71 0-.26-.11-.521-.29-.71-.37-.37-1.04-.37-1.42 0-.181.189-.29.45-.29.71 0 .26.109.52.29.71.189.18.45.29.71.29zM7 31h5a1 1 0 1 0 0-2H7a1 1 0 1 0 0 2zm21-2h-8a1 1 0 1 0 0 2h8a1 1 0 1 0 0-2zm-12.71.29c-.181.18-.29.439-.29.71 0 .26.109.52.29.71.189.18.439.29.71.29.26 0 .52-.11.71-.29.18-.19.29-.45.29-.71 0-.271-.11-.53-.29-.71-.37-.37-1.061-.36-1.42 0zm16 0c-.181.18-.29.439-.29.71 0 .26.109.52.29.71.189.18.439.29.71.29.26 0 .52-.11.71-.29.18-.19.29-.45.29-.71 0-.271-.11-.53-.29-.71-.37-.37-1.061-.36-1.42 0z" fill="#FCB41A"/></g></g></svg>