<?xml version="1.0"?>
<!--Icons from directory ""-->
<svg xmlns="http://www.w3.org/2000/svg" width="69" height="304" viewBox="0 0 69 304"><svg width="48" viewBox="0 0 48 68" height="68" id="audio" y="0"><title>6A4AFCA2-05D5-416D-8A91-143E3BD4F4D5</title><path fill-rule="evenodd" d="m36 20h-8v4h8v4h-8v4h8c-0.93 4.558-5.172 8-10 8h-4c-4.828 0-8.868-3.442-9.798-8h7.798v-4h-8v-4h8v-4h-8v-4h8v-4h-7.798c0.93-4.558 4.97-8 9.798-8h4c4.828 0 8.868 3.442 9.798 8h-7.798v4h8v4zm-10-20h-4c-7.72 0-14 6.28-14 14v16c0 7.72 6.28 14 14 14h4c7.72 0 14-6.28 14-14v-16c0-7.72-6.28-14-14-14zm18 34v2c0 6.618-5.382 12-12 12h-16c-6.618 0-12-5.382-12-12v-2h-4v2c0 8.822 7.178 16 16 16h6v12h-10v4h24v-4h-10v-12h6c8.822 0 16-7.178 16-16v-2h-4z" fill="#51566C"/></svg><svg width="64" viewBox="0 0 64 50" height="50" id="doc" y="68"><title>93D6E80F-6344-441A-849B-280055AE7947</title><g fill-rule="evenodd" fill="none"><path d="m-18 76h100v-100h-100z"/><path d="m60 44.032c-8.506-2.96-17.67-2.876-26 0.187v-30.055h-4v30.056c-8.332-3.065-17.496-3.147-26-0.187v-37.609c9.12-3.584 19.204-3.201 27.902 1.079l0.034 0.07 0.064-0.029c0.02 0.01 0.042 0.018 0.064 0.028l0.034-0.07c8.698-4.279 18.782-4.662 27.902-1.077v37.608zm2.8-40.765c-9.934-4.327-21.046-4.344-30.8-0.12-9.75-4.228-20.862-4.204-30.8 0.12l-1.2 0.523v46.21l2.8-1.22c9.428-4.104 20.022-3.883 29.102 0.582l0.034 0.07c0.022-0.01 0.044-0.018 0.064-0.028 0.02 0.01 0.042 0.018 0.064 0.028l0.034-0.07c9.08-4.465 19.674-4.688 29.102-0.582l2.8 1.22v-46.209l-1.2-0.524zm-52.8 22.733h12v-14h-12v14zm4-4h4v-6h-4v6zm-4 14h12v-4h-12v4zm30-20h16v-4h-16v4zm4 10h12v-4h-12v4zm-4 10h16v-4h-16v4z" fill="#51566C"/></g></svg><svg width="69" viewBox="0 0 69 50" height="50" id="img" y="118"><title>AC4902D7-EC94-44E9-8321-9B560B560735</title><path fill-rule="evenodd" d="m64.152 44c0 1.102-0.898 2-2 2h-56c-1.102 0-2-0.898-2-2v-38c0-1.102 0.898-2 2-2h56c1.102 0 2 0.898 2 2v38zm-2-44h-56c-3.308 0-6 2.692-6 6v38c0 3.308 2.692 6 6 6h56c3.308 0 6-2.692 6-6v-38c0-3.308-2.692-6-6-6zm-25.58 35.416l-12.405-14.47-15.52 17.736 3.01 2.636 12.48-14.264 11.596 13.53 10.11-6.066 6.894 6.896 2.83-2.828-9.106-9.104-9.89 5.934zm5.579-11.416c4.412 0 8-3.588 8-8s-3.588-8-8-8-8 3.588-8 8 3.588 8 8 8zm0-12c2.206 0 4 1.794 4 4s-1.794 4-4 4-4-1.794-4-4 1.794-4 4-4z" fill="#51566C"/></svg><svg width="54" viewBox="0 0 54 68" height="68" id="interactive" y="168"><title>CE29C941-CA63-4EA1-9B45-857B04FA8E21</title><path fill-rule="evenodd" d="m4 64v-60h28v12c0 3.308 2.692 6 6 6h12v42h-46zm32-58.344l12.344 12.344h-10.344c-1.102 0-2-0.898-2-2v-10.344zm0-5.656h-32c-2.21 0-4 1.79-4 4v60c0 2.21 1.79 4 4 4h46c2.21 0 4-1.79 4-4v-46l-18-18z" fill="#51566C"/></svg><svg width="68" viewBox="0 0 68 68" height="68" id="video" y="236"><title>F807BC87-EF19-4400-B263-DB1465CF60D7</title><g fill-rule="evenodd" fill="#51566C"><path d="m0.686 34.02c0 18.41 14.924 33.333 33.334 33.333s33.333-14.924 33.333-33.333c0-18.41-14.924-33.334-33.333-33.334-18.41 0-33.334 14.924-33.334 33.334zm3.922 0c0 16.244 13.168 29.411 29.412 29.411s29.41-13.167 29.41-29.411-13.166-29.412-29.41-29.412-29.412 13.168-29.412 29.412z"/><path d="m28.137 27.345l12.764 6.184-12.764 6.185v-12.37zm-3.921-6.258v24.885l25.679-12.442-25.68-12.442z"/></g></svg></svg>
