<svg width="64" height="50" viewBox="0 0 64 50" xmlns="http://www.w3.org/2000/svg"><title>93D6E80F-6344-441A-849B-280055AE7947</title><g fill="none" fill-rule="evenodd"><path d="M-18 76H82V-24H-18z"/><path d="M60 44.032c-8.506-2.96-17.67-2.876-26 .187V14.164h-4V44.22c-8.332-3.065-17.496-3.147-26-.187V6.424c9.12-3.584 19.204-3.201 27.902 1.079l.034.07.064-.029c.02.01.042.018.064.028l.034-.07C40.796 3.223 50.88 2.84 60 6.425v37.608zm2.8-40.765C52.866-1.06 41.754-1.077 32 3.147c-9.75-4.228-20.862-4.204-30.8.12L0 3.79V50l2.8-1.22c9.428-4.104 20.022-3.883 29.102.582l.034.07c.022-.01.044-.018.064-.028.02.01.042.018.064.028l.034-.07c9.08-4.465 19.674-4.688 29.102-.582L64 50V3.791l-1.2-.524zM10 26h12V12H10v14zm4-4h4v-6h-4v6zm-4 14h12v-4H10v4zm30-20h16v-4H40v4zm4 10h12v-4H44v4zm-4 10h16v-4H40v4z" fill="#51566C"/></g></svg>