<?xml version="1.0" encoding="UTF-8" standalone="no"?>
<svg width="1053px" height="594px" viewBox="0 0 1053 594" version="1.1" xmlns="http://www.w3.org/2000/svg" xmlns:xlink="http://www.w3.org/1999/xlink">
    <!-- Generator: Sketch 41.2 (35397) - http://www.bohemiancoding.com/sketch -->
    <title>خطأ</title>
    <desc>Created with Sketch.</desc>
    <defs></defs>
    <g id="error" stroke="none" stroke-width="1" fill="none" fill-rule="evenodd">
        <g id="general" transform="translate(-117.000000, -30.000000)" fill="#F1F1F1">
            <path d="M1121.84603,311.233 C1139.46978,319.301707 1151.67883,330.661427 1158.47353,345.3125 C1165.26823,359.963573 1168.87786,378.754885 1169.30253,401.687 L1169.30253,624 L829.781527,624 L829.781527,523.991 L1059.73853,523.991 L1059.73853,439.27 C1059.73853,422.283248 1056.97822,409.968038 1051.45753,402.324 C1045.93683,394.679962 1034.47095,390.858 1017.05953,390.858 C1010.26483,391.282669 996.88796,391.495 976.928527,391.495 L880.104527,391.495 L877.556527,320.788 C899.214635,314.417968 926.817693,309.215854 960.366527,305.1815 C993.915362,301.147146 1023.00474,299.13 1047.63553,299.13 C1079.48569,299.13 1104.22227,303.164293 1121.84603,311.233 Z M983.298527,143.702 L1082.03353,143.702 L1082.03353,246.259 L983.298527,246.259 L983.298527,143.702 Z M829.774473,523.991 L829.774473,624 L306.879473,624 L306.879473,523.991 L355.928473,523.991 L355.928473,185.744 L465.492473,185.744 L465.492473,382.577 C485.451906,362.617567 502.650734,347.011223 517.089473,335.7575 C531.528212,324.503777 548.514708,315.585866 568.049473,309.0035 C587.584237,302.421134 611.153001,299.13 638.756473,299.13 C685.47004,299.13 719.973861,309.321898 742.268973,329.706 C764.564084,350.090102 778.047116,371.535554 782.718473,394.043 C787.38983,416.550446 789.725473,439.906879 789.725473,464.113 L789.725473,523.991 L829.774473,523.991 Z M551.805973,422.071 C532.908212,437.359076 518.682021,451.903764 509.126973,465.7055 C499.571925,479.507236 486.938218,498.935541 471.225473,523.991 L680.161473,523.991 L680.161473,492.141 C680.161473,468.784217 675.596352,447.44493 666.465973,428.1225 C657.335594,408.80007 639.605938,399.139 613.276473,399.139 C591.193696,399.139 570.703734,406.782924 551.805973,422.071 Z M306.872419,523.991 L306.872419,624 L141.971419,624 L141.971419,240.526 L251.535419,240.526 L251.535419,523.991 L306.872419,523.991 Z M271.282419,169.819 L125.409419,198.484 L117.765419,162.175 L145.793419,155.168 C127.957329,139.879924 119.039419,121.194777 119.039419,99.112 C119.039419,80.4265732 125.727852,64.2894013 139.104919,50.7 C152.481985,37.1105987 169.786979,30.316 191.020419,30.316 C207.157833,30.316 224.356661,35.411949 242.617419,45.604 L233.062419,93.379 C225.843049,87.4336369 217.562132,84.461 208.219419,84.461 C199.301374,84.461 192.082113,87.4336369 186.561419,93.379 C181.040724,99.3243631 178.280419,106.331293 178.280419,114.4 C178.280419,127.140064 183.588699,136.482637 194.205419,142.428 L261.090419,124.592 L271.282419,169.819 Z" id="خطأ"></path>
        </g>
    </g>
</svg>