<svg width="17" height="12" viewBox="0 0 17 12" xmlns="http://www.w3.org/2000/svg"><title>8A51281C-67AE-4A34-937A-586181F08684</title><path d="M8.433 0C4.6 0 1.326 2.384 0 5.75c1.326 3.366 4.6 5.75 8.433 5.75 3.834 0 7.107-2.384 8.434-5.75C15.54 2.384 12.267 0 8.433 0zm0 9.583A3.835 3.835 0 0 1 4.6 5.75a3.835 3.835 0 0 1 3.833-3.833 3.835 3.835 0 0 1 3.834 3.833 3.835 3.835 0 0 1-3.834 3.833zm0-6.133a2.297 2.297 0 0 0-2.3 2.3c0 1.273 1.028 2.3 2.3 2.3 1.273 0 2.3-1.027 2.3-2.3s-1.027-2.3-2.3-2.3z" fill="#9E9E9E" fill-rule="evenodd"/></svg>