<?xml version="1.0" encoding="UTF-8" standalone="no"?>
<svg width="19px" height="14px" viewBox="0 0 19 14" version="1.1" xmlns="http://www.w3.org/2000/svg" xmlns:xlink="http://www.w3.org/1999/xlink">
    <!-- Generator: sketchtool 42 (36781) - http://www.bohemiancoding.com/sketch -->
    <title>CE941C84-7683-41F8-94E4-207356086DA8</title>
    <desc>Created with sketchtool.</desc>
    <defs></defs>
    <g id="profile" stroke="none" stroke-width="1" fill="none" fill-rule="evenodd">
        <g id="Profile--view--info" transform="translate(-1195.000000, -274.000000)">
            <g id="button" transform="translate(1187.000000, 263.000000)">
                <g id="ic_person" transform="translate(8.000000, 8.000000)">
                    <g id="Group">
                        <polygon id="Shape" points="0 0 20 0 20 20 0 20"></polygon>
                        <path d="M11.6666667,10 C13.5083333,10 15,8.50833333 15,6.66666667 C15,4.825 13.5083333,3.33333333 11.6666667,3.33333333 C9.825,3.33333333 8.33333333,4.825 8.33333333,6.66666667 C8.33333333,8.50833333 9.825,10 11.6666667,10 L11.6666667,10 Z M11.6666667,11.6666667 C9.44166667,11.6666667 5,12.7833333 5,15 L5,16.6666667 L18.3333333,16.6666667 L18.3333333,15 C18.3333333,12.7833333 13.8916667,11.6666667 11.6666667,11.6666667 L11.6666667,11.6666667 Z" id="Shape" fill="#51A868"></path>
                        <g id="outbox" transform="translate(0.833333, 6.666667)" stroke="#51A868" fill="#51A868">
                            <polygon id="Shape" points="2.0373134 4.10255921 0.50932835 2.57457416 0 3.08390251 2.0373134 5.12121591 6.40298497 0.755544344 5.89365662 0.246215994"></polygon>
                        </g>
                    </g>
                </g>
            </g>
        </g>
    </g>
</svg>