<svg width="69" height="50" viewBox="0 0 69 50" xmlns="http://www.w3.org/2000/svg"><title>AC4902D7-EC94-44E9-8321-9B560B560735</title><path d="M64.152 44c0 1.102-.898 2-2 2h-56c-1.102 0-2-.898-2-2V6c0-1.102.898-2 2-2h56c1.102 0 2 .898 2 2v38zm-2-44h-56c-3.308 0-6 2.692-6 6v38c0 3.308 2.692 6 6 6h56c3.308 0 6-2.692 6-6V6c0-3.308-2.692-6-6-6zm-25.58 35.416l-12.405-14.47-15.52 17.736 3.01 2.636 12.48-14.264 11.596 13.53 10.11-6.066 6.894 6.896 2.83-2.828-9.106-9.104-9.89 5.934zM42.151 24c4.412 0 8-3.588 8-8s-3.588-8-8-8-8 3.588-8 8 3.588 8 8 8zm0-12c2.206 0 4 1.794 4 4s-1.794 4-4 4-4-1.794-4-4 1.794-4 4-4z" fill="#51566C" fill-rule="evenodd"/></svg>