<?xml version="1.0" encoding="UTF-8" standalone="no"?>
<svg width="18px" height="16px" viewBox="0 0 18 16" version="1.1" xmlns="http://www.w3.org/2000/svg" xmlns:xlink="http://www.w3.org/1999/xlink">
    <!-- Generator: sketchtool 41.2 (35397) - http://www.bohemiancoding.com/sketch -->
    <title>38E2EFB0-945A-4103-B058-2B9DAB568E83</title>
    <desc>Created with sketchtool.</desc>
    <defs></defs>
    <g id="Discussion" stroke="none" stroke-width="1" fill="none" fill-rule="evenodd" opacity="0.540000021">
        <g id="Discussion_single" transform="translate(-373.000000, -1028.000000)">
            <g id="Group-2" transform="translate(334.000000, 965.000000)">
                <g id="button" transform="translate(27.000000, 53.000000)">
                    <g id="ic_thumb_up_black_16px" transform="translate(9.000000, 6.000000)">
                        <g id="Group">
                            <polygon id="Shape" points="0 0 24 0 24 24 0 24"></polygon>
                            <path d="M3,20 L6.27272727,20 L6.27272727,10.4 L3,10.4 L3,20 Z M21,11.2 C21,10.32 20.2636364,9.6 19.3636364,9.6 L14.2009091,9.6 L14.9781818,5.944 L15.0027273,5.688 C15.0027273,5.36 14.8636364,5.056 14.6427273,4.84 L13.7754545,4 L8.39181818,9.272 C8.08909091,9.56 7.90909091,9.96 7.90909091,10.4 L7.90909091,18.4 C7.90909091,19.28 8.64545455,20 9.54545455,20 L16.9090909,20 C17.5881818,20 18.1690909,19.6 18.4145455,19.024 L20.8854545,13.384 C20.9590909,13.2 21,13.008 21,12.8 L21,11.272 L20.9918182,11.264 L21,11.2 Z" id="Shape" fill="#000000"></path>
                        </g>
                    </g>
                </g>
            </g>
        </g>
    </g>
</svg>