<?xml version="1.0" encoding="UTF-8" standalone="no"?>
<svg width="24px" height="12px" viewBox="0 0 24 12" version="1.1" xmlns="http://www.w3.org/2000/svg" xmlns:xlink="http://www.w3.org/1999/xlink">
    <!-- Generator: sketchtool 42 (36781) - http://www.bohemiancoding.com/sketch -->
    <title>CBBBB7A9-6A2D-456C-95CC-790E8A047584</title>
    <desc>Created with sketchtool.</desc>
    <defs></defs>
    <g id="Symbols" stroke="none" stroke-width="1" fill="none" fill-rule="evenodd">
        <g id="Material/Icons-black/report" transform="translate(0.000000, -6.000000)" fill="#757575">
            <g id="logo_sym" transform="translate(0.000000, 6.043478)">
                <polygon id="Shape" points="16.3030057 4.56391895 13.2440347 4.53842219 13.2679329 1.22384419 14.1760649 1.22384419 14.1521667 3.56954554 16.3030058 3.5695455"></polygon>
                <polygon id="Shape" points="9.96997972 9.94373402 9.92218329 7.5725359 7.77134427 7.62352941 7.74744606 6.65465276 10.8064171 6.60365926 10.8781117 9.91823726"></polygon>
                <path d="M5.30982851,11.2440685 C3.97152867,11.2440685 2.63322884,10.7086366 1.7011986,9.63777297 C0.721371934,8.5159158 0.171713074,7.08809758 0.171713074,5.63478261 C0.171713074,4.15597088 0.721371934,2.72815267 1.7011986,1.63179225 C3.51746266,-0.407948062 6.71982298,-0.535431832 8.70337452,1.37682471 L16.4224968,8.77088334 C17.0916467,9.40830218 17.9997787,9.76525674 18.9557072,9.73975998 C19.9116356,9.71426323 20.7719712,9.33181192 21.3933247,8.66889632 C22.1580675,7.82750344 22.5882353,6.75663978 22.5882353,5.66027936 C22.5882353,4.56391895 22.1580675,3.49305528 21.3933247,2.6516624 C20.7719712,1.9887468 19.9116356,1.60629549 18.9557072,1.58079874 C18.0236769,1.55530199 17.0916467,1.91225654 16.4224968,2.54967539 L14.6540291,4.23246114 L13.6981007,3.11060397 L15.4665683,1.42781822 C17.4262216,-0.433444816 20.6046838,-0.356954554 22.3970496,1.60629549 C23.4246727,2.72815267 23.9982298,4.18146764 23.9982298,5.68577612 C23.9982298,7.1900846 23.4246727,8.64339957 22.3970496,9.76525674 C21.4650194,10.7851269 20.1506177,11.295062 18.8601143,11.295062 C17.6413056,11.295062 16.4224968,10.8361204 15.4665683,9.94373402 L7.74744606,2.54967539 C7.07829615,1.91225654 6.1462659,1.55530199 5.19033745,1.58079874 C4.234409,1.60629549 3.35017518,2.01424356 2.72882169,2.70265591 C1.98797713,3.51855204 1.58170754,4.5894157 1.58170754,5.66027936 C1.58170754,6.73114303 1.98797713,7.80200669 2.72882169,8.61790281 C3.32627697,9.30631517 4.234409,9.71426323 5.19033745,9.73975998 C6.1462659,9.76525674 7.07829615,9.43379894 7.74744606,8.77088334 L9.5159137,7.08809758 L10.4718422,8.20995475 L8.70337452,9.89274051 C7.74744606,10.7851269 6.50473907,11.2440685 5.30982851,11.2440685" id="Shape"></path>
                <rect id="Rectangle-path" x="16.7809699" y="3.82451308" width="3.7998156" height="0.739405863"></rect>
                <rect id="Rectangle-path" x="16.7809699" y="6.68014952" width="3.7998156" height="0.739405863"></rect>
                <rect id="Rectangle-path" x="16.7809699" y="5.2523313" width="3.7998156" height="0.739405863"></rect>
                <rect id="Rectangle-path" x="3.30237876" y="3.82451308" width="3.7998156" height="0.739405863"></rect>
                <rect id="Rectangle-path" x="3.30237876" y="6.68014952" width="3.7998156" height="0.739405863"></rect>
                <rect id="Rectangle-path" x="3.30237876" y="5.2523313" width="3.7998156" height="0.739405863"></rect>
            </g>
        </g>
    </g>
</svg>