<svg width="137" height="30" viewBox="0 0 137 30" xmlns="http://www.w3.org/2000/svg"><title>FA77B1DB-DBD9-4CA7-BA0E-B9E88714DEB9</title><g fill="#C1C1C1" fill-rule="evenodd"><path d="M39.399 14.338l-7.393-.058.058-7.508h2.195l-.058 5.314H39.4zM24.094 26.524l-.115-5.371-5.198.115-.058-2.194 7.393-.116.173 7.508z"/><path d="M12.832 29.47c-3.234 0-6.468-1.213-8.72-3.639C1.742 23.29.414 20.056.414 16.764c0-3.35 1.328-6.584 3.696-9.068 4.39-4.62 12.129-4.909 16.922-.577l18.655 16.748c1.617 1.444 3.811 2.253 6.122 2.195 2.31-.058 4.389-.924 5.89-2.426 1.849-1.906 2.888-4.331 2.888-6.815 0-2.483-1.04-4.909-2.887-6.815-1.502-1.501-3.581-2.367-5.891-2.425-2.253-.058-4.505.75-6.122 2.194l-4.274 3.812-2.31-2.541 4.274-3.812c4.735-4.216 12.417-4.043 16.748.405 2.484 2.54 3.87 5.833 3.87 9.24 0 3.408-1.386 6.7-3.87 9.24-2.252 2.31-5.429 3.466-8.547 3.466-2.946 0-5.891-1.04-8.201-3.06L18.723 9.774c-1.617-1.443-3.87-2.252-6.18-2.194-2.31.058-4.447.982-5.948 2.54-1.79 1.85-2.773 4.275-2.773 6.7 0 2.426.982 4.852 2.773 6.7 1.444 1.56 3.638 2.483 5.948 2.541 2.31.058 4.563-.693 6.18-2.195l4.274-3.811 2.31 2.54-4.274 3.813c-2.31 2.02-5.313 3.06-8.2 3.06"/><path d="M40.554 12.663h9.183v1.675h-9.183zM40.554 19.132h9.183v1.675h-9.183zM40.554 15.897h9.183v1.675h-9.183zM7.981 12.663h9.183v1.675H7.981zM7.981 19.132h9.183v1.675H7.981zM7.981 15.897h9.183v1.675H7.981zM90.108 7.861c2.032 0 3.583.642 4.706 1.872 1.124 1.284 1.658 3.049 1.658 5.402v10.16h-4.76V15.67c0-2.406-.962-3.583-2.887-3.583-2.14 0-3.209 1.498-3.209 4.44v8.823h-4.76v-9.626c0-2.407-.962-3.583-2.888-3.583-2.139 0-3.208 1.337-3.208 4.064v9.145H70V8.236h3.957l.16 2.3h.054c1.017-1.765 2.674-2.675 5.027-2.675 2.354 0 4.118.91 5.188 2.781h.053c1.124-1.871 2.995-2.78 5.67-2.78zM99.2.802C99.735.267 100.483 0 101.285 0c.803 0 1.551.267 2.086.802a2.86 2.86 0 0 1 .856 2.086c0 .856-.268 1.604-.856 2.14-.535.534-1.283.801-2.086.801-.802 0-1.55-.267-2.085-.802-.535-.535-.856-1.23-.856-2.14.054-.855.321-1.55.856-2.085zm-.268 7.38h4.76v17.114h-4.76V8.182zm17.114-.32c2.086 0 3.69.641 4.866 1.925 1.177 1.283 1.765 3.102 1.765 5.401V25.35h-4.76v-9.573c0-1.176-.267-2.085-.855-2.727-.535-.642-1.337-.963-2.353-.963-1.123 0-1.979.375-2.62 1.07-.642.695-.91 1.765-.91 3.048v9.092h-4.76V8.182h3.958l.16 2.46h.054c1.176-1.871 2.941-2.78 5.455-2.78zm20.75 12.62v4.6c-.802.374-1.925.588-3.37.588-2.085 0-3.69-.535-4.759-1.658-1.07-1.123-1.604-2.727-1.604-4.92v-6.845h-2.835V8.236h2.995l.642-4.813h4.01v4.813h4.92v4.01h-4.92v6.632c0 .802.215 1.444.642 1.872.428.428 1.017.642 1.765.642.963 0 1.765-.321 2.407-.963h.107v.054z"/></g></svg>