<svg width="161" height="35" viewBox="0 0 161 35" xmlns="http://www.w3.org/2000/svg"><title>37F89864-8866-48BE-86D2-6F9059494891</title><g fill="#FFF" fill-rule="evenodd"><path d="M138.3 16.728l-8.687-.068.068-8.76h2.58l-.069 6.2h6.109zM120.315 30.945l-.136-6.267-6.108.135-.068-2.56 8.687-.135.204 8.76z"/><path d="M107.08 34.381c-3.8 0-7.602-1.415-10.249-4.245-2.782-2.965-4.343-6.738-4.343-10.578 0-3.908 1.56-7.682 4.343-10.579 5.159-5.39 14.253-5.727 19.887-.674l21.922 19.54c1.9 1.685 4.48 2.628 7.195 2.56 2.715-.067 5.158-1.077 6.923-2.83 2.171-2.223 3.393-5.053 3.393-7.95 0-2.897-1.222-5.727-3.393-7.95-1.765-1.753-4.208-2.763-6.923-2.83-2.647-.068-5.294.875-7.195 2.56l-5.022 4.447-2.715-2.965 5.022-4.447c5.566-4.919 14.593-4.717 19.683.472 2.919 2.964 4.548 6.805 4.548 10.78 0 3.976-1.63 7.816-4.548 10.781-2.647 2.695-6.38 4.043-10.045 4.043-3.461 0-6.923-1.213-9.638-3.571l-21.922-19.54c-1.9-1.685-4.547-2.628-7.262-2.56-2.715.067-5.226 1.145-6.991 2.964-2.104 2.156-3.258 4.986-3.258 7.816s1.154 5.66 3.258 7.816c1.697 1.82 4.276 2.897 6.99 2.965 2.716.067 5.363-.809 7.263-2.56l5.022-4.448 2.715 2.965-5.022 4.447c-2.715 2.358-6.244 3.571-9.638 3.571"/><path d="M139.658 14.774h10.792v1.954h-10.792zM139.658 22.32h10.792v1.954h-10.792zM139.658 18.547h10.792V20.5h-10.792zM101.379 14.774h10.792v1.954h-10.792zM101.379 22.32h10.792v1.954h-10.792zM101.379 18.547h10.792V20.5h-10.792zM23.63 9.172c2.39 0 4.212.748 5.532 2.183 1.32 1.498 1.948 3.557 1.948 6.302v11.855h-5.594v-11.23c0-2.809-1.13-4.181-3.393-4.181-2.514 0-3.771 1.747-3.771 5.178v10.295h-5.594v-11.23c0-2.808-1.131-4.18-3.394-4.18-2.514 0-3.77 1.559-3.77 4.741v10.67H0V9.607h4.65l.19 2.683h.062c1.194-2.059 3.143-3.12 5.908-3.12 2.765 0 4.84 1.061 6.096 3.245h.063c1.32-2.184 3.52-3.244 6.662-3.244zM34.316.936C34.944.312 35.823 0 36.766 0c.943 0 1.823.312 2.451.936a3.325 3.325 0 0 1 1.006 2.433c0 .998-.314 1.872-1.006 2.496-.628.624-1.508.936-2.45.936-.944 0-1.823-.312-2.452-.936-.628-.624-1.006-1.435-1.006-2.496.063-.998.378-1.81 1.006-2.433zm-.314 8.61h5.593v19.966h-5.593V9.546zm20.111-.374c2.451 0 4.337.748 5.72 2.246 1.382 1.497 2.073 3.619 2.073 6.302v11.854h-5.593V18.406c0-1.373-.314-2.433-1.006-3.182-.628-.749-1.57-1.123-2.765-1.123-1.32 0-2.325.436-3.08 1.248-.754.81-1.068 2.059-1.068 3.556v10.607H42.8V9.546h4.65l.189 2.87h.063c1.382-2.184 3.456-3.244 6.41-3.244zm24.385 14.724v5.366c-.942.437-2.262.686-3.96.686-2.45 0-4.336-.623-5.593-1.934-1.257-1.31-1.885-3.182-1.885-5.74v-7.986h-3.331v-4.68h3.52l.754-5.615h4.713v5.615h5.782v4.68h-5.782v7.737c0 .936.252 1.684.754 2.183.503.5 1.195.75 2.074.75 1.132 0 2.074-.375 2.829-1.124h.125v.062z"/></g></svg>