<svg xmlns="http://www.w3.org/2000/svg" width="20" height="114" viewBox="0 0 20 114"><svg xmlns:xlink="http://www.w3.org/1999/xlink" height="20" width="20" viewBox="0 0 20 20"><title>0784115E-E7A6-4A82-9A5F-9F33CF3D1EAA</title><g fill-rule="evenodd" fill="none"><circle cy="10" cx="10" r="10" fill="#0DA574"/><path fill="#fff" d="M7.874 12.537L5.088 9.802l-.93.912 3.716 3.647 7.961-7.816-.929-.912z"/></g></svg><svg xmlns:xlink="http://www.w3.org/1999/xlink" height="16" width="4" viewBox="0 0 4 16" y="20"><title>A93AF16A-1A68-4BCF-852E-4FFA1EDFCB1D</title><path d="M2 4c1.1 0 2-.9 2-2s-.9-2-2-2-2 .9-2 2 .9 2 2 2zm0 2C.9 6 0 6.9 0 8s.9 2 2 2 2-.9 2-2-.9-2-2-2zm0 6c-1.1 0-2 .9-2 2s.9 2 2 2 2-.9 2-2-.9-2-2-2z" opacity=".54" fill-rule="evenodd"/></svg><svg xmlns:xlink="http://www.w3.org/1999/xlink" height="16" width="4" viewBox="0 0 4 16" y="36"><title>612F1C39-7EF3-453D-9AFE-4353D2297EBD</title><path d="M2 4c1.1 0 2-.9 2-2s-.9-2-2-2-2 .9-2 2 .9 2 2 2zm0 2C.9 6 0 6.9 0 8s.9 2 2 2 2-.9 2-2-.9-2-2-2zm0 6c-1.1 0-2 .9-2 2s.9 2 2 2 2-.9 2-2-.9-2-2-2z" opacity=".18" fill-rule="evenodd"/></svg><svg xmlns:xlink="http://www.w3.org/1999/xlink" height="15" width="16" viewBox="0 0 16 15" y="52"><title>1F6805F1-B16F-428C-85F1-D4F17FC81FA8</title><path d="M6.88 13.596C2.72 9.917 0 7.438 0 4.399 0 1.919 1.92 0 4.4 0 5.76 0 7.12.64 8 1.68 8.88.64 10.24 0 11.6 0 14.08 0 16 1.92 16 4.399c0 3.039-2.72 5.518-6.88 9.197L8 14.716l-1.12-1.12z" opacity=".54" fill-rule="evenodd"/></svg><svg xmlns:xlink="http://www.w3.org/1999/xlink" height="15" width="16" viewBox="0 0 16 15" y="67"><title>7C8921AC-1579-4D52-B64E-8246127EF9E4</title><path d="M6.88 13.596C2.72 9.917 0 7.438 0 4.399 0 1.919 1.92 0 4.4 0 5.76 0 7.12.64 8 1.68 8.88.64 10.24 0 11.6 0 14.08 0 16 1.92 16 4.399c0 3.039-2.72 5.518-6.88 9.197L8 14.716l-1.12-1.12z" fill="#f55" fill-rule="evenodd"/></svg><svg xmlns:xlink="http://www.w3.org/1999/xlink" height="12" width="13" viewBox="0 0 13 12" y="82"><title>5D034E67-E5A3-4B0D-B12A-68B8FDA8D610</title><g fill-rule="evenodd" fill="none"><path opacity=".54" fill="#000" d="M.59 1.41L5.18 6 .59 10.59 2 12l6-6-6-6L.59 1.41zM11 0h2v12h-2V0z"/><path d="M-5-6h24v24H-5z"/></g></svg><svg xmlns:xlink="http://www.w3.org/1999/xlink" height="20" width="20" viewBox="0 0 20 20" y="94"><title>09B0CACC-5A2F-4646-A8BF-F3062415FDED</title><g fill-rule="evenodd" fill="none"><circle cy="10" cx="10" r="10" fill="#FCB316"/><path fill="#fff" d="M9.995 5C7.235 5 5 7.24 5 10s2.235 5 4.995 5C12.76 15 15 12.76 15 10s-2.24-5-5.005-5zm2.12 8L10 11.725 7.885 13l.56-2.405L6.58 8.98l2.46-.21L10 6.5l.96 2.265 2.46.21-1.865 1.615.56 2.41z"/></g></svg></svg>