<?xml version="1.0"?>
<!--Icons from directory ""-->
<svg xmlns="http://www.w3.org/2000/svg" width="161" height="327" viewBox="0 0 161 327"><svg xmlns:xlink="http://www.w3.org/1999/xlink" viewBox="0 0 82 82" width="82" height="82" id="annotation" y="0"><title>3BA8D682-E885-4596-B715-FC144ED85722</title><defs><circle id="annotation-a" cy="41" cx="41" r="41"/></defs><g fill-rule="evenodd" fill="none"><mask id="annotation-b" fill="#fff"><use xlink:href="#annotation-a"/></mask><use xlink:href="#annotation-a" fill="#FFF"/><g mask="url(#annotation-b)"><path stroke="#FCB41A" stroke-width="2" d="m21.756 83.427l-0.008-24.173c0-1.105 0.403-2.799 0.9-3.781l17.957-35.537c0.498-0.984 1.323-1.002 1.848-0.031l18.31 33.821c0.523 0.967 0.95 2.645 0.953 3.76l0.078 27.899" fill="#FFF"/><path d="m35.157 30.217l12.977 0.05-6.453-10.56" fill="#FCB41A"/><path stroke="#FCB41A" stroke-width="2" d="m21.725 56.942l8.971 12.75c0.636 0.903 1.653 0.903 2.28-0.014l7.584-11.086c0.624-0.912 1.667-0.937 2.33-0.056l8.43 11.197c0.663 0.881 1.635 0.814 2.17-0.147l8.164-14.683m-29.55 15.097v10.57m20.5-9.57v10.57"/></g></g></svg><svg width="82" viewBox="0 0 82 82" height="82" id="collabration" y="82"><title>ED90487E-8FEB-4942-9EFB-5721DB241322</title><g fill-rule="evenodd"><circle cy="41" cx="41" r="41" fill="#FFF"/><circle r="25" cy="41" stroke="#FCB41A" cx="41" stroke-dasharray="4" stroke-width="2" fill="#FFF"/><g fill="#FCB41A"><circle cy="42" cx="16" r="4"/><circle cy="57" cx="60" r="4"/><circle cy="22" cx="56" r="4"/></g></g></svg><svg xmlns:xlink="http://www.w3.org/1999/xlink" viewBox="0 0 82 82" width="82" height="82" id="comment" y="164"><title>79D2261D-430B-48CA-B5A3-1CBA65E8DBE7</title><defs><path id="comment-a" d="m9.844 39h27.156a1.996 1.996 0 0 0 2 -2.001v-34.999a1.996 1.996 0 0 0 -2.001 -2h-34.999a1.996 1.996 0 0 0 -2 2.001v34.999c0 1.112 0.896 2 2.001 2h1.88l-0.246 4.1 6.21-4.1z"/><mask id="comment-b" height="43.099" width="39" y="0" x="0" fill="#fff"><use xlink:href="#comment-a"/></mask></defs><g fill-rule="evenodd" fill="none"><circle cy="41" cx="41" r="41" fill="#FFF"/><g transform="translate(22 21)"><use xlink:href="#comment-a" stroke="#FCB41A" stroke-width="4" mask="url(#comment-b)" fill="#FFF"/><path d="m17 8h6a1 1 0 1 0 0 -2h-6a1 1 0 1 0 0 2zm15 13h-7a1 1 0 1 0 0 2h7a1 1 0 1 0 0 -2zm-25-6h5a1 1 0 1 0 0 -2h-5a1 1 0 1 0 0 2zm12-1a1 1 0 0 0 1 1h8a1 1 0 1 0 0 -2h-8a1 1 0 0 0 -1 1zm-3 1c0.26 0 0.52-0.11 0.71-0.29 0.18-0.19 0.29-0.45 0.29-0.71s-0.11-0.521-0.29-0.71c-0.37-0.37-1.05-0.37-1.42 0-0.181 0.189-0.29 0.45-0.29 0.71s0.109 0.52 0.29 0.71c0.189 0.18 0.45 0.29 0.71 0.29zm6 7a1 1 0 0 0 -1 -1h-10a1 1 0 1 0 0 2h10a1 1 0 0 0 1 -1zm-15 1c0.26 0 0.52-0.11 0.71-0.29 0.18-0.19 0.29-0.45 0.29-0.71s-0.11-0.521-0.29-0.71c-0.38-0.37-1.05-0.37-1.42 0-0.181 0.189-0.29 0.439-0.29 0.71 0 0.26 0.109 0.52 0.29 0.71 0.189 0.18 0.45 0.29 0.71 0.29zm25-8c0.26 0 0.52-0.11 0.71-0.29 0.18-0.19 0.29-0.45 0.29-0.71s-0.11-0.521-0.29-0.71c-0.37-0.37-1.04-0.37-1.42 0-0.181 0.189-0.29 0.45-0.29 0.71s0.109 0.52 0.29 0.71c0.189 0.18 0.45 0.29 0.71 0.29zm-25 16h5a1 1 0 1 0 0 -2h-5a1 1 0 1 0 0 2zm21-2h-8a1 1 0 1 0 0 2h8a1 1 0 1 0 0 -2zm-12.71 0.29c-0.181 0.18-0.29 0.439-0.29 0.71 0 0.26 0.109 0.52 0.29 0.71 0.189 0.18 0.439 0.29 0.71 0.29 0.26 0 0.52-0.11 0.71-0.29 0.18-0.19 0.29-0.45 0.29-0.71 0-0.271-0.11-0.53-0.29-0.71-0.37-0.37-1.061-0.36-1.42 0zm16 0c-0.181 0.18-0.29 0.439-0.29 0.71 0 0.26 0.109 0.52 0.29 0.71 0.189 0.18 0.439 0.29 0.71 0.29 0.26 0 0.52-0.11 0.71-0.29 0.18-0.19 0.29-0.45 0.29-0.71 0-0.271-0.11-0.53-0.29-0.71-0.37-0.37-1.061-0.36-1.42 0z" fill="#FCB41A"/></g></g></svg><svg width="137" viewBox="0 0 137 30" height="30" id="logo-footer" y="246"><title>FA77B1DB-DBD9-4CA7-BA0E-B9E88714DEB9</title><g fill-rule="evenodd" fill="#C1C1C1"><path d="m39.399 14.338l-7.393-0.058 0.058-7.508h2.195l-0.058 5.314h5.199zm-15.305 12.186l-0.115-5.371-5.198 0.115-0.058-2.194 7.393-0.116 0.173 7.508z"/><path d="m12.832 29.47c-3.234 0-6.468-1.213-8.72-3.639-2.37-2.541-3.698-5.775-3.698-9.067 0-3.35 1.328-6.584 3.696-9.068 4.39-4.62 12.129-4.909 16.922-0.577l18.655 16.748c1.617 1.444 3.811 2.253 6.122 2.195 2.31-0.058 4.389-0.924 5.89-2.426 1.849-1.906 2.888-4.331 2.888-6.815 0-2.483-1.04-4.909-2.887-6.815-1.502-1.501-3.581-2.367-5.891-2.425-2.253-0.058-4.505 0.75-6.122 2.194l-4.274 3.812-2.31-2.541 4.274-3.812c4.735-4.216 12.417-4.043 16.748 0.405 2.484 2.54 3.87 5.833 3.87 9.24 0 3.408-1.386 6.7-3.87 9.24-2.252 2.31-5.429 3.466-8.547 3.466-2.946 0-5.891-1.04-8.201-3.06l-18.654-16.751c-1.617-1.443-3.87-2.252-6.18-2.194s-4.447 0.982-5.948 2.54c-1.79 1.85-2.773 4.275-2.773 6.7 0 2.426 0.982 4.852 2.773 6.7 1.444 1.56 3.638 2.483 5.948 2.541s4.563-0.693 6.18-2.195l4.274-3.811 2.31 2.54-4.274 3.813c-2.31 2.02-5.313 3.06-8.2 3.06"/><path d="m40.554 12.663h9.183v1.675h-9.183zm0 6.469h9.183v1.675h-9.183zm0-3.235h9.183v1.675h-9.183zm-32.573-3.234h9.183v1.675h-9.183zm0 6.469h9.183v1.675h-9.183zm0-3.235h9.183v1.675h-9.183zm82.127-8.036c2.032 0 3.583 0.642 4.706 1.872 1.124 1.284 1.658 3.049 1.658 5.402v10.16h-4.76v-9.625c0-2.406-0.962-3.583-2.887-3.583-2.14 0-3.209 1.498-3.209 4.44v8.823h-4.76v-9.626c0-2.407-0.962-3.583-2.888-3.583-2.139 0-3.208 1.337-3.208 4.064v9.145h-4.76v-17.114h3.957l0.16 2.3h0.054c1.017-1.765 2.674-2.675 5.027-2.675 2.354 0 4.118 0.91 5.188 2.781h0.053c1.124-1.871 2.995-2.78 5.67-2.78zm9.092-7.059c0.535-0.535 1.28-0.802 2.08-0.802 0.803 0 1.551 0.267 2.086 0.802a2.86 2.86 0 0 1 0.856 2.086c0 0.856-0.268 1.604-0.856 2.14-0.535 0.534-1.283 0.801-2.086 0.801-0.802 0-1.55-0.267-2.085-0.802s-0.856-1.23-0.856-2.14c0.054-0.855 0.321-1.55 0.856-2.085zm-0.268 7.38h4.76v17.114h-4.76v-17.114zm17.114-0.32c2.086 0 3.69 0.641 4.866 1.925 1.177 1.283 1.765 3.102 1.765 5.401v10.162h-4.76v-9.573c0-1.176-0.267-2.085-0.855-2.727-0.535-0.642-1.337-0.963-2.353-0.963-1.123 0-1.979 0.375-2.62 1.07-0.642 0.695-0.91 1.765-0.91 3.048v9.092h-4.76v-17.115h3.958l0.16 2.46h0.054c1.176-1.871 2.941-2.78 5.455-2.78zm20.75 12.62v4.6c-0.802 0.374-1.925 0.588-3.37 0.588-2.085 0-3.69-0.535-4.759-1.658-1.07-1.123-1.604-2.727-1.604-4.92v-6.845h-2.835v-4.011h2.995l0.642-4.813h4.01v4.813h4.92v4.01h-4.92v6.632c0 0.802 0.215 1.444 0.642 1.872 0.428 0.428 1.017 0.642 1.765 0.642 0.963 0 1.765-0.321 2.407-0.963h0.107v0.054z"/></g></svg><svg width="161" viewBox="0 0 161 35" height="35" id="logo" y="276"><title>37F89864-8866-48BE-86D2-6F9059494891</title><g fill-rule="evenodd" fill="#FFF"><path d="m138.3 16.728l-8.687-0.068 0.068-8.76h2.58l-0.069 6.2h6.109zm-17.98 14.217l-0.136-6.267-6.108 0.135-0.068-2.56 8.687-0.135 0.204 8.76z"/><path d="m107.08 34.381c-3.8 0-7.602-1.415-10.249-4.245-2.782-2.965-4.343-6.738-4.343-10.578 0-3.908 1.56-7.682 4.343-10.579 5.159-5.39 14.253-5.727 19.887-0.674l21.922 19.54c1.9 1.685 4.48 2.628 7.195 2.56 2.715-0.067 5.158-1.077 6.923-2.83 2.171-2.223 3.393-5.053 3.393-7.95s-1.222-5.727-3.393-7.95c-1.765-1.753-4.208-2.763-6.923-2.83-2.647-0.068-5.294 0.875-7.195 2.56l-5.022 4.447-2.715-2.965 5.022-4.447c5.566-4.919 14.593-4.717 19.683 0.472 2.919 2.964 4.548 6.805 4.548 10.78 0 3.976-1.63 7.816-4.548 10.781-2.647 2.695-6.38 4.043-10.045 4.043-3.461 0-6.923-1.213-9.638-3.571l-21.922-19.54c-1.9-1.685-4.547-2.628-7.262-2.56-2.715 0.067-5.226 1.145-6.991 2.964-2.104 2.156-3.258 4.986-3.258 7.816s1.154 5.66 3.258 7.816c1.697 1.82 4.276 2.897 6.99 2.965 2.716 0.067 5.363-0.809 7.263-2.56l5.022-4.448 2.715 2.965-5.022 4.447c-2.715 2.358-6.244 3.571-9.638 3.571"/><path d="m139.66 14.774h10.792v1.954h-10.792zm0 7.546h10.792v1.954h-10.792zm0-3.773h10.792v1.953h-10.792zm-38.28-3.773h10.792v1.954h-10.792zm0 7.546h10.792v1.954h-10.792zm0-3.773h10.792v1.953h-10.792zm-77.75-9.375c2.39 0 4.212 0.748 5.532 2.183 1.32 1.498 1.948 3.557 1.948 6.302v11.855h-5.594v-11.23c0-2.809-1.13-4.181-3.393-4.181-2.514 0-3.771 1.747-3.771 5.178v10.295h-5.594v-11.23c0-2.808-1.131-4.18-3.394-4.18-2.514 0-3.77 1.559-3.77 4.741v10.67h-5.594v-19.968h4.65l0.19 2.683h0.062c1.194-2.059 3.143-3.12 5.908-3.12s4.84 1.061 6.096 3.245h0.063c1.32-2.184 3.52-3.244 6.662-3.244zm10.686-8.236c0.628-0.624 1.507-0.936 2.45-0.936s1.823 0.312 2.451 0.936a3.325 3.325 0 0 1 1.006 2.433c0 0.998-0.314 1.872-1.006 2.496-0.628 0.624-1.508 0.936-2.45 0.936-0.944 0-1.823-0.312-2.452-0.936-0.628-0.624-1.006-1.435-1.006-2.496 0.063-0.998 0.378-1.81 1.006-2.433zm-0.314 8.61h5.593v19.966h-5.593v-19.966zm20.111-0.374c2.451 0 4.337 0.748 5.72 2.246 1.382 1.497 2.073 3.619 2.073 6.302v11.854h-5.593v-11.168c0-1.373-0.314-2.433-1.006-3.182-0.628-0.749-1.57-1.123-2.765-1.123-1.32 0-2.325 0.436-3.08 1.248-0.754 0.81-1.068 2.059-1.068 3.556v10.607h-5.594v-19.966h4.65l0.189 2.87h0.063c1.382-2.184 3.456-3.244 6.41-3.244zm24.385 14.724v5.366c-0.942 0.437-2.262 0.686-3.96 0.686-2.45 0-4.336-0.623-5.593-1.934-1.257-1.31-1.885-3.182-1.885-5.74v-7.986h-3.331v-4.68h3.52l0.754-5.615h4.713v5.615h5.782v4.68h-5.782v7.737c0 0.936 0.252 1.684 0.754 2.183 0.503 0.5 1.195 0.75 2.074 0.75 1.132 0 2.074-0.375 2.829-1.124h0.125v0.062z"/></g></svg><svg xmlns:xlink="http://www.w3.org/1999/xlink" height="16" width="16" version="1.1" viewBox="0 0 16 16" id="shape" y="311"><title>469B41DE-EE2A-427D-BEA8-B1DA6D113C8D</title><desc>Created with sketchtool.</desc><g id="shape-Symbols" opacity="0.54" fill-rule="evenodd" fill="none"><g id="shape-Material/Icons-black/arrow-back" fill="#000" transform="translate(-4 -4)"><polygon id="shape-Shape" points="20 11 7.8 11 13.4 5.4 12 4 4 12 12 20 13.4 18.6 7.8 13 20 13"/></g></g></svg></svg>
