<svg xmlns="http://www.w3.org/2000/svg" width="161" height="311" viewBox="0 0 161 311"><svg xmlns:xlink="http://www.w3.org/1999/xlink" viewBox="0 0 82 82" width="82" height="82"><title>3BA8D682-E885-4596-B715-FC144ED85722</title><defs><circle id="a" cy="41" cx="41" r="41"/></defs><g fill-rule="evenodd" fill="none"><mask id="b" fill="#fff"><use xlink:href="#a"/></mask><use xlink:href="#a" fill="#FFF"/><g mask="url(#b)"><path stroke="#FCB41A" stroke-width="2" d="M21.756 83.427l-.008-24.173c0-1.105.403-2.799.9-3.781l17.957-35.537c.498-.984 1.323-1.002 1.848-.031l18.31 33.821c.523.967.95 2.645.953 3.76l.078 27.899" fill="#FFF"/><path d="M35.157 30.217l12.977.05-6.453-10.56" fill="#FCB41A"/><path stroke="#FCB41A" stroke-width="2" d="M21.725 56.942l8.971 12.75c.636.903 1.653.903 2.28-.014l7.584-11.086c.624-.912 1.667-.937 2.33-.056l8.43 11.197c.663.881 1.635.814 2.17-.147l8.164-14.683M32.104 70v10.57m20.5-9.57v10.57"/></g></g></svg><svg width="82" viewBox="0 0 82 82" height="82" y="82"><title>ED90487E-8FEB-4942-9EFB-5721DB241322</title><g fill-rule="evenodd"><circle cy="41" cx="41" r="41" fill="#FFF"/><circle r="25" cy="41" stroke="#FCB41A" cx="41" stroke-dasharray="4" stroke-width="2" fill="#FFF"/><g fill="#FCB41A"><circle cy="42" cx="16" r="4"/><circle cy="57" cx="60" r="4"/><circle cy="22" cx="56" r="4"/></g></g></svg><svg xmlns:xlink="http://www.w3.org/1999/xlink" viewBox="0 0 82 82" width="82" height="82" y="164"><title>79D2261D-430B-48CA-B5A3-1CBA65E8DBE7</title><defs><path id="c" d="M9.844 39H37a1.996 1.996 0 0 0 2-2.001V2a1.996 1.996 0 0 0-2.001-2H2a1.996 1.996 0 0 0-2 2.001V37c0 1.112.896 2 2.001 2h1.88l-.246 4.1 6.21-4.1z"/><mask id="d" height="43.099" width="39" y="0" x="0" fill="#fff"><use xlink:href="#c"/></mask></defs><g fill-rule="evenodd" fill="none"><circle cy="41" cx="41" r="41" fill="#FFF"/><g transform="translate(22 21)"><use xlink:href="#c" stroke="#FCB41A" stroke-width="4" mask="url(#d)" fill="#FFF"/><path d="M17 8h6a1 1 0 1 0 0-2h-6a1 1 0 1 0 0 2zm15 13h-7a1 1 0 1 0 0 2h7a1 1 0 1 0 0-2zM7 15h5a1 1 0 1 0 0-2H7a1 1 0 1 0 0 2zm12-1a1 1 0 0 0 1 1h8a1 1 0 1 0 0-2h-8a1 1 0 0 0-1 1zm-3 1c.26 0 .52-.11.71-.29.18-.19.29-.45.29-.71s-.11-.521-.29-.71c-.37-.37-1.05-.37-1.42 0-.181.189-.29.45-.29.71s.109.52.29.71c.189.18.45.29.71.29zm6 7a1 1 0 0 0-1-1H11a1 1 0 1 0 0 2h10a1 1 0 0 0 1-1zM7 23c.26 0 .52-.11.71-.29.18-.19.29-.45.29-.71s-.11-.521-.29-.71c-.38-.37-1.05-.37-1.42 0-.181.189-.29.439-.29.71 0 .26.109.52.29.71.189.18.45.29.71.29zm25-8c.26 0 .52-.11.71-.29.18-.19.29-.45.29-.71s-.11-.521-.29-.71c-.37-.37-1.04-.37-1.42 0-.181.189-.29.45-.29.71s.109.52.29.71c.189.18.45.29.71.29zM7 31h5a1 1 0 1 0 0-2H7a1 1 0 1 0 0 2zm21-2h-8a1 1 0 1 0 0 2h8a1 1 0 1 0 0-2zm-12.71.29c-.181.18-.29.439-.29.71 0 .26.109.52.29.71.189.18.439.29.71.29.26 0 .52-.11.71-.29.18-.19.29-.45.29-.71 0-.271-.11-.53-.29-.71-.37-.37-1.061-.36-1.42 0zm16 0c-.181.18-.29.439-.29.71 0 .26.109.52.29.71.189.18.439.29.71.29.26 0 .52-.11.71-.29.18-.19.29-.45.29-.71 0-.271-.11-.53-.29-.71-.37-.37-1.061-.36-1.42 0z" fill="#FCB41A"/></g></g></svg><svg xmlns:xlink="http://www.w3.org/1999/xlink" height="30" width="137" viewBox="0 0 137 30" y="246"><title>FA77B1DB-DBD9-4CA7-BA0E-B9E88714DEB9</title><g fill="#C1C1C1" fill-rule="evenodd"><path d="M39.399 14.338l-7.393-.058.058-7.508h2.195l-.058 5.314h5.198zM24.094 26.524l-.115-5.371-5.198.115-.058-2.194 7.393-.116.173 7.508z"/><path d="M12.832 29.47c-3.234 0-6.468-1.213-8.72-3.639C1.742 23.29.414 20.056.414 16.764c0-3.35 1.328-6.584 3.696-9.068 4.39-4.62 12.13-4.909 16.922-.577l18.655 16.748c1.617 1.444 3.811 2.253 6.122 2.195 2.31-.058 4.39-.924 5.891-2.426 1.848-1.906 2.887-4.331 2.887-6.815 0-2.483-1.039-4.909-2.887-6.815-1.502-1.502-3.58-2.368-5.89-2.426-2.254-.057-4.506.751-6.123 2.195l-4.274 3.812-2.31-2.541 4.274-3.812c4.735-4.216 12.417-4.043 16.748.404 2.484 2.541 3.87 5.833 3.87 9.24 0 3.409-1.386 6.7-3.87 9.242-2.252 2.31-5.429 3.465-8.547 3.465-2.946 0-5.89-1.04-8.2-3.061L18.722 9.774c-1.617-1.443-3.87-2.251-6.18-2.194-2.31.058-4.447.982-5.948 2.542-1.79 1.848-2.772 4.274-2.772 6.699 0 2.426.981 4.852 2.772 6.7 1.444 1.559 3.638 2.483 5.948 2.54s4.563-.692 6.18-2.194l4.274-3.811 2.31 2.54-4.274 3.813c-2.31 2.02-5.313 3.06-8.2 3.06"/><path d="M40.554 12.663h9.183v1.675h-9.183zm0 6.469h9.183v1.675h-9.183zm0-3.235h9.183v1.675h-9.183zM7.981 12.663h9.183v1.675H7.981zm0 6.469h9.183v1.675H7.981zm0-3.235h9.183v1.675H7.981zm82.127-8.035c2.032 0 3.583.641 4.706 1.871 1.124 1.284 1.658 3.049 1.658 5.402v10.161h-4.759v-9.627c0-2.406-.963-3.583-2.888-3.583-2.139 0-3.209 1.498-3.209 4.439v8.824h-4.76v-9.626c0-2.407-.962-3.583-2.888-3.583-2.139 0-3.208 1.337-3.208 4.064v9.145H70V8.236h3.957l.161 2.299h.053c1.017-1.764 2.674-2.674 5.027-2.674 2.354 0 4.118.91 5.188 2.781h.053c1.124-1.871 2.995-2.78 5.669-2.78zM99.2.802C99.735.267 100.48 0 101.29 0c.8 0 1.55.267 2.08.802.54.535.86 1.23.86 2.086s-.27 1.604-.86 2.14c-.53.534-1.28.801-2.08.801-.81 0-1.555-.267-2.09-.802s-.856-1.23-.856-2.14c.054-.855.321-1.55.856-2.085zm-.268 7.38h4.758v17.114h-4.758V8.182zm17.118-.32c2.08 0 3.69.641 4.86 1.925 1.18 1.283 1.77 3.102 1.77 5.401v10.161h-4.76v-9.573c0-1.176-.27-2.085-.86-2.727-.53-.642-1.34-.963-2.35-.963-1.12 0-1.98.375-2.62 1.07s-.91 1.765-.91 3.048v9.092h-4.76V8.182h3.96l.16 2.46h.05c1.18-1.871 2.94-2.78 5.46-2.78zm20.75 12.622v4.598c-.81.374-1.93.588-3.37.588-2.09 0-3.69-.535-4.76-1.658s-1.61-2.727-1.61-4.92v-6.844h-2.83V8.236h2.99l.64-4.813h4.02v4.813h4.92v4.012h-4.92v6.63c0 .803.21 1.445.64 1.873s1.01.642 1.76.642c.96 0 1.77-.321 2.41-.963h.11v.054z"/></g></svg><svg xmlns:xlink="http://www.w3.org/1999/xlink" height="35" width="161" viewBox="0 0 161 35" y="276"><title>37F89864-8866-48BE-86D2-6F9059494891</title><g fill="#fff" fill-rule="evenodd"><path d="M138.301 16.728l-8.688-.067.068-8.76h2.579l-.068 6.199h6.109zm-17.986 14.217l-.136-6.266-6.108.135-.068-2.561 8.687-.135.204 8.76z"/><path d="M107.08 34.38c-3.801 0-7.602-1.414-10.249-4.243-2.782-2.965-4.343-6.738-4.343-10.58 0-3.907 1.56-7.68 4.343-10.578 5.159-5.39 14.253-5.727 19.887-.674l21.922 19.54c1.901 1.685 4.48 2.628 7.195 2.561s5.158-1.078 6.923-2.83c2.171-2.223 3.393-5.053 3.393-7.95 0-2.898-1.222-5.728-3.393-7.951-1.765-1.752-4.208-2.763-6.923-2.83-2.647-.068-5.294.876-7.195 2.56l-5.022 4.447-2.715-2.965 5.022-4.447c5.566-4.918 14.593-4.716 19.683.472 2.92 2.965 4.548 6.805 4.548 10.781 0 3.975-1.629 7.816-4.548 10.78-2.647 2.696-6.38 4.043-10.045 4.043-3.46 0-6.923-1.213-9.638-3.57l-21.922-19.54c-1.9-1.685-4.547-2.629-7.262-2.561-2.715.067-5.226 1.145-6.99 2.964-2.105 2.156-3.259 4.986-3.259 7.816s1.154 5.66 3.258 7.816c1.697 1.82 4.276 2.898 6.991 2.965s5.362-.809 7.262-2.56l5.022-4.447 2.715 2.964-5.022 4.447c-2.715 2.36-6.244 3.571-9.638 3.571"/><path d="M139.658 14.774h10.792v1.954h-10.792zm0 7.546h10.792v1.954h-10.792zm0-3.773h10.792V20.5h-10.792zm-38.279-3.773h10.792v1.954h-10.792zm0 7.546h10.792v1.954h-10.792zm0-3.773h10.792V20.5h-10.792zM23.631 9.172c2.388 0 4.211.748 5.531 2.183 1.319 1.498 1.948 3.557 1.948 6.302v11.855h-5.594V18.281c0-2.808-1.131-4.18-3.393-4.18-2.514 0-3.771 1.747-3.771 5.178v10.295h-5.594V18.343c0-2.807-1.131-4.18-3.394-4.18-2.514 0-3.77 1.56-3.77 4.742v10.669H0V9.608h4.65l.19 2.683h.062c1.194-2.059 3.143-3.12 5.908-3.12 2.765 0 4.839 1.061 6.096 3.245h.063c1.32-2.184 3.519-3.244 6.662-3.244zM34.315.936C34.944.312 35.823 0 36.766 0s1.823.312 2.451.936c.629.624 1.006 1.435 1.006 2.433s-.314 1.872-1.006 2.496c-.628.624-1.508.936-2.451.936s-1.822-.312-2.451-.936c-.628-.624-1.006-1.435-1.006-2.496.063-.998.378-1.81 1.006-2.433zm-.314 8.61h5.593v19.966h-5.593V9.546zm20.111-.374c2.451 0 4.337.748 5.719 2.246 1.383 1.497 2.074 3.619 2.074 6.302v11.854h-5.593V18.406c0-1.373-.314-2.433-1.006-3.182-.628-.749-1.571-1.123-2.765-1.123-1.32 0-2.325.436-3.08 1.248-.754.811-1.068 2.059-1.068 3.556v10.607H42.8V9.546h4.65l.189 2.87h.063c1.382-2.184 3.456-3.244 6.41-3.244zm24.385 14.724v5.366c-.942.437-2.262.686-3.959.686-2.451 0-4.337-.623-5.594-1.934-1.257-1.31-1.885-3.182-1.885-5.74v-7.986h-3.331v-4.68h3.519l.755-5.615h4.713v5.615h5.782v4.68h-5.782v7.737c0 .936.252 1.684.754 2.183.503.5 1.195.749 2.074.749 1.132 0 2.074-.374 2.829-1.123h.125v.062z"/></g></svg></svg>