<svg width="68" height="68" viewBox="0 0 68 68" xmlns="http://www.w3.org/2000/svg"><title>F807BC87-EF19-4400-B263-DB1465CF60D7</title><g fill="#51566C" fill-rule="evenodd"><path d="M.686 34.02c0 18.41 14.924 33.333 33.334 33.333 18.41 0 33.333-14.924 33.333-33.333C67.353 15.61 52.429.686 34.02.686 15.61.686.686 15.61.686 34.02zm3.922 0c0 16.244 13.168 29.411 29.412 29.411S63.43 50.264 63.43 34.02 50.264 4.608 34.02 4.608 4.608 17.776 4.608 34.02z"/><path d="M28.137 27.345l12.764 6.184-12.764 6.185v-12.37zm-3.921-6.258v24.885L49.895 33.53l-25.68-12.442z"/></g></svg>